<svg width="1920" height="1231" viewBox="0 0 1920 1231" fill="none" xmlns="http://www.w3.org/2000/svg">
<g opacity="0.25" clip-path="url(#clip0_718_22109)">
<path d="M1424.83 122.334C1428.54 122.804 1438.25 122.832 1446.52 122.254C1461.16 121.638 1461.16 121.638 1449.42 123.467C1442.54 124.416 1434.85 126.108 1432.02 126.92C1429.25 127.968 1424.39 127.06 1421.59 125.306C1415.69 121.63 1415.62 121.394 1424.83 122.334Z" fill="#DB9C62"/>
<path d="M1499.9 109.767C1505.1 111.857 1508.95 114.589 1508.58 115.973C1507.5 119.349 1528.5 135.574 1539.5 140.091L1549.29 143.934L1544.53 138.907C1541.99 136.309 1532.78 130.002 1524.44 124.977C1512.16 117.76 1509.99 115.567 1514.21 115.126C1517.18 114.787 1524.63 116.74 1530.98 119.268C1537.39 122.033 1543.3 123.92 1544 123.717C1544.95 123.446 1551.46 125.67 1558.48 128.772C1573.06 135.076 1574.03 132.24 1560.87 121.952C1552.29 115.205 1552.29 115.205 1566.37 122.421C1574.2 126.569 1588.04 135.641 1597.29 142.961C1612.85 155.374 1614.97 152.976 1600.42 138.74C1596.91 135.4 1594.95 132.127 1595.89 131.856C1600.38 130.571 1627.58 143.484 1633.39 149.489C1636.43 152.964 1639.6 155.123 1639.87 154.278C1640.37 153.367 1638.04 149.689 1634.63 145.809C1628.82 139.803 1629.6 139.837 1645.02 148.199C1663.79 158.417 1671.52 166.683 1679.06 184.974C1683.08 194.558 1686.4 198.978 1691.79 201.777C1701.68 206.869 1702.36 211.02 1692.07 206.3L1684.07 202.457L1691.56 207.212C1695.65 209.876 1699.63 211.292 1700.68 210.481C1702.97 207.779 1759.17 242.55 1781.65 260.394C1803.9 278.305 1834.52 307.622 1858.19 334.073C1885.35 364.64 1917.31 415.56 1924.65 440.298C1927.8 450.39 1928.31 451.267 1929.75 446.507C1932.54 435.737 1913.72 371.848 1893.81 324.634L1875.58 281.538L1862.83 278.035C1842.78 272.274 1831.75 264.956 1822.76 251.425C1818.54 244.71 1812.93 237.624 1810.36 235.803C1807.63 234.285 1806.38 232.598 1807.32 232.328C1810.39 231.448 1798.1 220.653 1785.45 213.032C1778.32 208.681 1768.43 201.801 1763.64 197.55C1758.61 193.367 1746.46 184.834 1736.77 178.662C1726.85 172.558 1718.47 166.521 1718.2 165.576C1717.87 164.394 1710 159.234 1700.75 153.704C1691.57 148.409 1684.25 143.35 1684.58 142.742C1684.92 142.134 1689.95 142.739 1695.65 143.917C1708.74 146.813 1716.43 145.121 1704.75 141.819C1694.77 139.057 1679.34 128.905 1669.99 118.547C1666.04 114.566 1661.68 110.957 1660.23 110.35C1652.5 107.452 1665.39 107.849 1682.12 110.979C1694 113.2 1707.23 118.357 1719.07 124.933L1737.13 135.353L1730.57 116.015C1723.02 94.1452 1721.77 94.2472 1746.72 116.242C1754.89 123.36 1762.02 131.288 1762.77 133.887C1763.75 136.418 1764.82 133.042 1765.59 125.919C1766.19 119.1 1765.58 111.606 1764.12 109.211C1759.12 100.673 1764.72 104.181 1774.11 115.551C1787.35 131.442 1801.64 153.679 1804.08 162.185C1805.23 166.201 1806.85 168.293 1808 166.942C1808.98 165.895 1808.67 160.359 1807.11 154.925L1804.5 144.935L1815.24 157.452C1827.1 171.184 1838.75 187.786 1842.57 196.661C1844.84 201.892 1845.31 201.757 1847.52 191.662C1849.3 182.716 1849.98 181.5 1852.31 185.179C1856.53 191.894 1865.19 213.189 1868.1 223.347L1870.5 232.629L1875.45 224.052C1878.15 219.19 1880.03 213.281 1879.42 211.155C1878.81 209.029 1879.25 206.092 1880.39 204.741C1882.01 203.255 1884.31 209.498 1888.34 226.239C1893.52 246.996 1893.93 251.992 1891.32 266.035C1888.26 281.227 1888.43 282.713 1894.21 293.072C1916.11 332.048 1928.38 361.51 1936.24 394.282C1943.93 425.57 1945.3 439.24 1944.63 477.014C1944.3 488.356 1934.75 521.003 1925.06 542.444C1921.43 551.155 1894.81 583.07 1890.56 584.287C1889.62 584.558 1890.79 580.641 1892.95 575.678C1912.27 532.561 1907.09 482.402 1879.97 451.058C1854.61 422.279 1834.93 409.767 1799.43 399.998C1775.14 393.666 1757.4 394.149 1731.3 402.906C1702.53 412.172 1701.86 413.388 1708.57 442.144C1714.84 468.47 1722.71 484.364 1743.82 512.572C1755.24 527.452 1764.25 536.629 1775.43 544.42C1784.04 550.39 1790.89 555.584 1790.55 556.192C1789.37 558.319 1740.55 547.512 1730.87 543.129C1720.2 538.004 1690.45 508.181 1683.9 495.999C1681.97 491.949 1678.93 488.474 1677.55 488.103C1673.03 486.587 1668.89 466.808 1670.33 451.314C1671.02 440.376 1674.29 431.26 1681.69 417.889C1687.25 407.86 1692.57 396.11 1693.54 391.485C1696.02 378.757 1709.06 364.539 1723.6 359.095C1746.66 350.441 1805.36 355.606 1834.72 368.922C1841.2 371.923 1847.24 374.282 1847.71 374.147C1850.07 373.471 1810.77 337.948 1798.38 329.482C1791.97 324.929 1783.9 319.06 1780.69 315.889C1776.03 312.111 1772.73 311.269 1766.83 312.96C1755.02 316.342 1730.4 314.196 1710.93 307.76C1694.6 302.47 1693.68 301.964 1699.38 299.564C1705.25 296.86 1704.95 296.691 1691.96 293.256C1684.5 291.302 1676.3 290.328 1673.7 291.072C1670.4 292.019 1669.72 291.446 1671.51 289.656C1674.78 285.907 1657.64 283.149 1643.64 285.114C1630.89 286.978 1627.72 283.031 1639.79 280.593C1644.41 279.781 1648.6 278.327 1649.34 277.347C1650.85 274.612 1610.01 280.948 1601.44 284.936L1593.76 288.417L1599.89 283.08C1603.06 279.872 1607.14 277.169 1608.72 276.459C1610.14 276.053 1611.76 274.567 1612.19 273.419C1613.2 269.807 1587.1 280.353 1581.04 285.927C1573.99 292.547 1571.16 293.359 1575.61 287.483C1578.81 283.498 1578.03 283.464 1569.57 288.701C1564.08 291.81 1557.5 296.506 1554.67 299.107C1549.89 303.801 1549.82 303.565 1554.47 296.609C1557.36 292.455 1559.18 288.1 1558.91 287.155C1558.57 285.973 1557.22 286.615 1555.98 288.506C1554.73 290.398 1547.72 294.452 1540.44 297.562C1527.46 303.072 1527.22 303.139 1528.39 297.434C1530.17 288.488 1529.33 288.218 1515.03 293.593L1501.14 298.597L1505.72 287.826C1508.07 281.783 1512.96 274.759 1516.19 271.786C1519.73 268.983 1522.19 265.977 1521.99 265.268C1521.78 264.559 1514.63 262.774 1506.06 261.395L1490.78 258.872L1549.02 243.716L1537.98 238.187C1531.2 235.017 1529.54 233.702 1533.63 234.577C1537.54 235.756 1545.94 235.65 1552.89 234.938L1565.16 233.209L1558.89 229.128C1552.68 225.283 1552.68 225.283 1557.87 225.584C1560.74 225.785 1572.38 226.285 1583.71 226.616C1595.04 226.947 1607.36 228.02 1610.73 229.098C1620.48 231.928 1620.31 228.654 1610.42 223.563L1602.05 219.314L1618.48 222.275C1627.66 223.992 1635.93 225.202 1636.87 224.931C1637.81 224.661 1643.72 226.548 1649.83 229.144C1660.22 233.323 1665.35 231.599 1655.42 227.284C1653.06 226.171 1650.73 224.282 1650.39 223.101C1649.45 219.793 1674.38 229.264 1686.8 236.954C1699.29 244.879 1701.75 243.663 1693.08 233.878L1687.06 227.164L1698.27 234.179C1704.48 238.024 1714.07 244.736 1719.71 249.256C1728.45 255.698 1730.2 256.474 1731.21 252.861C1731.78 250.397 1730.87 246.313 1729.65 243.849C1724.92 236.257 1731.54 241.519 1747.24 257.983C1758.69 270.297 1762.71 276.303 1765.35 285.517C1769.48 299.929 1772.45 303.168 1793.85 317.232C1810.73 327.99 1816.03 333.118 1806.78 329.376C1802.12 327.387 1801.96 327.691 1806.04 330.356C1808.37 332.245 1811.14 332.986 1811.88 332.006C1814 329.609 1874.64 384.326 1886.22 398.902C1897.3 412.6 1897.2 411.352 1885.88 390.564C1875.98 372.949 1849.36 338.905 1832.34 322.307C1826.3 316.369 1814.75 304.595 1807.02 296.329C1790.07 278.178 1764.11 258.007 1725.39 232.543C1685.22 206.473 1686.07 206.743 1664.82 211.042C1650.86 214.02 1642.15 213.958 1626.64 211.502C1607.57 208.273 1607.27 208.104 1616.81 206.647C1622.75 205.969 1627.24 204.683 1627.1 204.211C1626.9 203.502 1621.26 202.56 1614.68 201.889C1602.91 200.917 1589.61 195.523 1589.61 191.945C1589.78 189.852 1570.28 187.77 1563.37 189.496C1559.05 190.477 1558.75 190.309 1562.25 188.281C1565.52 186.322 1564.24 185.411 1555.63 183.019C1549.63 181.672 1541.13 180.53 1536.61 180.802C1532.16 181.311 1528.78 180.233 1529.22 179.085C1529.59 177.701 1524.02 175.206 1517 173.894C1504.21 171.167 1504.21 171.167 1512.65 170.284C1523.27 169.029 1521.08 167.613 1500.77 162.696L1485.08 158.755L1495.63 155.475L1506.25 152.431L1497.85 150.748C1493.3 150.008 1482.53 145.423 1473.96 140.466L1458.4 131.631L1478.16 127.501C1488.99 125.166 1500.09 123.776 1502.48 124.112C1509.06 124.783 1507.27 121.206 1497.51 113.009C1493.09 109.163 1489.64 106.06 1489.88 105.992C1490.12 105.924 1494.71 107.677 1499.9 109.767ZM1477.77 138.607C1487.02 144.138 1511.95 148.242 1520.68 145.739C1529.89 143.101 1529.35 141.211 1516.96 134.534C1509.06 130.15 1503.03 129.58 1489.53 130.634C1480.09 131.551 1472.03 132.838 1471.69 133.446C1471.12 134.122 1474.06 136.348 1477.77 138.607ZM1551.54 136.641C1558.6 144.333 1579.59 156.98 1583.37 155.897C1587.38 154.747 1571.99 142.03 1559.13 135.489C1551.6 131.51 1545.12 128.509 1544.65 128.645C1544.41 128.712 1547.52 132.424 1551.54 136.641ZM1587.57 146.511C1595.04 155.621 1617.55 170.899 1616.13 165.938C1615.39 163.339 1580.34 133.755 1579.74 135.207C1579.4 135.815 1582.85 140.707 1587.57 146.511ZM1501.57 158.375C1501.71 158.847 1508.18 160.059 1515.67 161.236C1526.4 163.019 1533.65 162.474 1545.15 158.924L1560.43 154.29L1545.38 151.7C1533.81 149.647 1527.03 150.056 1515.7 153.303C1507.98 155.772 1501.44 157.902 1501.57 158.375ZM1673.26 116.588C1682.64 126.169 1700.83 135.273 1717.94 138.807C1728.5 140.894 1736.93 141.801 1736.66 140.856C1734.9 134.713 1683.88 113.544 1670.52 113.281C1670.22 113.113 1671.47 114.8 1673.26 116.588ZM1618.21 155.371C1626.12 166.911 1633.58 174.232 1641.85 179.02C1648.36 183.034 1654.07 186.001 1654.24 185.697C1654.91 184.481 1641.67 165.012 1635.79 158.77C1630.96 153.507 1608.99 138.33 1607.1 138.871C1606.86 138.938 1611.83 146.463 1618.21 155.371ZM1733.6 115.912C1740.53 130.288 1747.02 138.656 1758.56 148.641C1765.01 154.207 1770.58 158.491 1770.92 157.883C1771.93 156.059 1758.08 132.674 1753.25 127.411C1746.83 121.069 1731.91 108.216 1730.96 108.487C1730.49 108.622 1731.74 112.098 1733.6 115.912ZM1529.15 173.482C1537.11 174.523 1557.98 169.819 1572.21 164.208C1584.62 159.374 1558.72 161.684 1539.6 167.163C1521.18 172.44 1520.71 172.575 1529.15 173.482ZM1563.38 174.407C1558.9 175.692 1555.63 177.652 1555.97 178.833C1557.12 182.85 1579.21 180.609 1592.19 175.099C1604.7 169.725 1604.94 169.657 1597.92 168.345C1590.29 166.695 1578.83 167.681 1574.51 170.451C1572.69 171.229 1567.87 173.122 1563.38 174.407ZM1649.32 165.885C1656.83 179.586 1670.54 195.342 1675.19 195.542C1683.19 195.807 1666.8 166.246 1654.11 157.612C1648.97 153.969 1644.18 151.508 1643.68 152.42C1643.1 153.095 1645.88 159.203 1649.32 165.885ZM1776.2 143.331C1781.95 159.834 1785.2 165.807 1793.54 174.41C1804.78 186.016 1808.76 183.853 1802.2 169.882C1795.71 156.147 1773.38 121.898 1771.25 122.506C1770.07 122.845 1772.48 132.126 1776.2 143.331ZM1712.59 154.912C1721.74 159.194 1750.25 163.296 1751.53 160.628C1753.04 157.893 1736.51 151.894 1722.57 150.518C1702.23 148.167 1699.94 149.079 1712.59 154.912ZM1587.24 185.465C1586.87 186.85 1588.93 187.794 1592.07 187.15C1602.83 184.579 1624.85 178.524 1624.64 177.815C1623.36 173.326 1588.62 180.469 1587.24 185.465ZM1603.51 195.887C1609.08 198.381 1620.45 197.936 1651.07 194.273C1658.26 193.492 1658.19 193.256 1652.69 190.998C1645.74 188.132 1630.59 187.871 1613.05 190.852C1605.7 191.936 1599.06 192.817 1598.35 193.02C1597.57 192.987 1600 194.336 1603.51 195.887ZM1741.22 174.575C1748.51 180.411 1762.34 184.116 1781.03 185.152L1791.49 185.99L1782.48 180.391C1777.31 177.525 1769.52 174.39 1765.13 173.346C1757.98 171.561 1737.2 168.569 1735.01 168.942C1734.47 168.841 1737.3 171.607 1741.22 174.575ZM1637.09 208.762C1645.25 210.513 1676.01 205.533 1675.2 202.698C1674.12 198.918 1656.54 199.097 1643.32 202.885L1629.16 206.944L1637.09 208.762ZM1578.76 233.404C1582.44 234.651 1590.3 238.022 1596.17 240.685C1605.55 244.899 1627.89 247.958 1634.73 245.996C1642.99 243.629 1610.97 232.609 1591.3 230.831C1573.8 229.457 1569.88 230.067 1578.76 233.404ZM1816.08 185.334C1818.76 195.561 1835.45 221.712 1838.75 220.765C1842.05 219.818 1839.71 203.617 1835.15 193.931C1833.02 189.173 1827.17 180.366 1822.38 174.326C1814.34 164.103 1813.43 163.597 1813.5 169.2C1813.5 172.779 1814.76 179.833 1816.08 185.334ZM1554.99 242.261C1562.48 245.228 1577.9 248.223 1586.13 248.421L1592.57 248.62L1584.67 244.236C1575.8 239.11 1561.29 236.621 1553.97 238.718L1549.25 240.071L1554.99 242.261ZM1515.74 258.622C1519.08 260.476 1546.6 258.469 1556.28 255.696C1564.48 253.092 1564.88 252.72 1560.19 251.508C1557.42 250.766 1551.39 250.196 1547.1 250.401C1537.52 250.845 1513.07 257.341 1515.74 258.622ZM1767.48 194.915C1779.8 204.934 1820.67 220.067 1818.98 214.16C1817.89 210.38 1782.42 192.679 1772.3 191.233C1766.67 190.291 1761.81 189.382 1761.34 189.518C1760.8 189.417 1763.57 191.947 1767.48 194.915ZM1632.36 234.149C1639.82 241.47 1654.33 249.327 1666.62 252.966L1675.52 255.526L1668.09 247.429C1661.17 240.209 1647.57 232.858 1633.26 229.288C1625.27 227.233 1625.27 227.233 1632.36 234.149ZM1550.5 271.159C1544.77 276.124 1538.47 283.554 1536.41 287.978C1532.44 295.507 1532.51 295.744 1537.23 294.391C1545.49 292.023 1555.94 282.127 1561.69 271.018C1568.53 258.321 1565.19 258.256 1550.5 271.159ZM1514.68 281.678C1510.27 288.566 1510.17 289.107 1514.42 287.889C1523.22 285.622 1536.4 277.243 1539.1 272.381C1541.38 267.89 1540.61 267.857 1530.69 270.698C1522.2 273.133 1518.35 275.768 1514.68 281.678ZM1670.52 239.832C1678.25 249.887 1705.76 268.336 1707.78 264.689C1710.21 260.671 1673.95 232.201 1668.52 233.757C1667.34 234.096 1668.39 236.863 1670.52 239.832ZM1571.78 266.083C1566.66 273.175 1562.72 287.085 1565.79 286.205C1570.04 284.988 1587.06 270.395 1594.2 261.446L1601.48 252.969L1588.5 256.69C1579.76 259.193 1574.27 262.301 1571.78 266.083ZM1716.91 223.468C1717.05 223.94 1719.48 225.289 1722.08 226.334C1726.73 228.323 1726.9 228.019 1722.75 225.119C1718.6 222.218 1716.37 221.578 1716.91 223.468ZM1597.65 266.339C1591.89 272.081 1591.65 272.148 1597.59 271.47C1606.19 270.283 1632.31 253.593 1626.27 253.022C1620.17 252.216 1604.86 259.415 1597.65 266.339ZM1851.81 229.804C1855.84 244.756 1859.96 250.222 1862.55 244.111C1864.88 238.843 1864.42 222.101 1862.06 217.41C1860.91 215.183 1857.97 209.378 1855.53 204.451L1851.41 195.407L1849.63 206.143C1849 211.949 1849.78 222.717 1851.81 229.804ZM1626.08 266.626C1611.72 275.343 1621.88 276.013 1652.36 268.299L1680.42 261.025L1664.63 259.414C1646.92 257.331 1638.46 258.99 1626.08 266.626ZM1711.58 255.674C1714.62 259.149 1719.35 264.953 1722.22 268.732C1727.29 275.716 1739.03 282.832 1737.75 278.343C1735.85 271.728 1722.04 254.723 1714.48 249.731C1705.03 243.492 1703.17 246.835 1711.58 255.674ZM1809.68 226.284C1821.33 235.729 1845.93 245.808 1844.5 240.847C1843.29 236.594 1827.56 226.274 1818.04 223.376C1803.16 218.693 1801.1 219.538 1809.68 226.284ZM1761.71 252.304C1780.03 265.458 1797.79 281.077 1820.45 303.984C1827.98 311.541 1839.39 322.843 1845.67 328.713C1861.37 343.388 1879.65 368.829 1894.01 396.67C1908.17 423.801 1917.04 449.383 1913.2 452.018C1911.44 453.032 1912.19 459.209 1914.76 468.187C1919.44 484.488 1923.48 513.752 1921.46 517.399C1920.79 518.615 1916.42 504.271 1911.61 485.708C1901.86 448.109 1893.61 430.021 1874.35 403.837C1860.98 385.684 1845.45 376.072 1818.63 368.932C1793.19 362.161 1775.78 360.247 1748.53 361.41C1728.83 362.198 1724.91 362.808 1716.93 367.91C1708.77 373.315 1694.39 393.543 1697.73 395.398C1698.33 395.735 1703.73 393.167 1709.56 389.45C1724.83 379.45 1758.55 370.552 1776.47 371.555C1798.8 372.825 1827.28 381.281 1847.39 392.646C1868.49 404.752 1870.45 409.814 1849.46 398.957C1808.55 377.444 1762.43 372.508 1728.75 385.996C1706.29 394.988 1693.66 405.257 1685.04 421.532C1678.27 434.465 1678 435.309 1683.66 428.318C1697.24 410.622 1707.42 403.359 1728.32 396.089C1764.77 383.342 1798.75 388.69 1843.23 413.779C1875.19 431.719 1896.3 454.56 1904.93 480.209C1912.81 503.26 1914.62 522.939 1910.66 542.992C1908.04 557.036 1908.21 558.521 1911.61 555.245C1918.02 549.064 1922.89 533.095 1925.5 510.105C1927.87 490.762 1927.76 478.778 1925.1 453.463C1923.6 437.531 1898.73 391.738 1871.84 354.96C1856.71 334.242 1842.33 319.702 1797.42 278.883C1779.39 262.319 1748.2 239.045 1745.6 239.789C1744.89 239.992 1752.12 245.592 1761.71 252.304ZM1742.33 269.361C1748.08 285.865 1755.17 296.359 1761.55 298.11C1767.08 299.593 1755.49 272.493 1746.06 261.899C1741.47 256.568 1737.22 252.419 1736.74 252.554C1736.51 252.622 1738.98 260.35 1742.33 269.361ZM1658.21 277.106C1659.22 280.65 1683.48 280.602 1695.28 277.22L1707.01 273.601L1698.85 271.85C1684.91 268.685 1656.85 272.381 1658.21 277.106ZM1871.9 243.734C1870.63 253.558 1874.49 268.813 1878.98 272.895C1881.37 275.02 1882.76 273.602 1884.77 266.377C1887.16 257.768 1886.82 253.008 1882.78 229.111L1881.56 221.281L1877.14 228.169C1874.72 232.188 1872.33 239.008 1871.9 243.734ZM1693.7 285.086C1688.68 288.059 1689.35 288.633 1703.56 290.954C1712.13 292.333 1724.24 292.697 1730.58 291.647L1742.31 289.818L1736.24 286.445C1728.51 281.758 1709.92 278.393 1703.78 280.152C1701.25 281.132 1696.74 283.194 1693.7 285.086ZM1833.93 255.638C1841.83 263.6 1866.06 276.852 1870.08 275.702C1876.68 273.808 1834.29 245.308 1827.61 246.966C1826.43 247.304 1829.37 251.32 1833.93 255.638ZM1707.85 303.272C1723.75 309.71 1768.21 313.331 1766.79 308.369C1766.18 306.243 1747.55 300.076 1737.5 298.867C1730.55 297.791 1713.48 298.847 1704.48 300.405C1703.06 300.811 1704.72 302.126 1707.85 303.272ZM1892.1 304.416C1895.21 311.705 1902 327.398 1907.41 339.142C1918 362.697 1933.46 413.997 1934.66 429.761C1934.97 435.297 1934.95 448.597 1934.42 459.23C1932.74 497.038 1932.75 504.194 1935.27 499.635C1937.66 494.604 1939.54 450.349 1937.83 431.919C1935.86 410.756 1919.64 356.857 1907.03 329.792C1900.91 316.461 1894.22 302.018 1892.53 297.9C1886.78 284.975 1886.45 290.95 1892.1 304.416ZM1822.52 345.064C1828.12 350.36 1835.01 356.567 1838.32 359.199C1843.89 363.482 1843.89 363.482 1837.81 356.532C1830.75 348.84 1815.25 334.874 1813.6 335.347C1813.13 335.483 1817.22 339.936 1822.52 345.064ZM1692.3 435.301C1692.28 448.6 1698.78 473.07 1705.1 485.32C1708.75 492.71 1718.38 505.802 1726.42 514.236C1734.52 522.907 1740.2 530.229 1739.02 530.567C1736.18 531.379 1710.05 507.933 1703.46 498.317C1700.32 493.593 1694.78 479.587 1690.95 467.133C1683.91 442.563 1681.65 440.91 1683.29 460.893C1685.2 481.82 1696.22 506.017 1709.29 518.634C1723.33 531.994 1732.89 537.693 1735.41 534.924C1736.63 533.809 1737 534.214 1736.46 535.902C1735.72 538.67 1744.56 542.783 1757.04 545.342C1762.75 546.52 1762.75 546.52 1754.14 536.972C1726.14 506.135 1707.01 471.479 1702.19 442.181C1699 423.921 1698.67 422.74 1695.57 426.185C1693.61 428.279 1692.2 432.263 1692.3 435.301ZM1878.64 400.054C1883.87 406.735 1891.17 417.937 1894.85 424.551C1898.3 431.233 1902.96 440.378 1905.43 444.529L1909.69 452.257L1907.82 444.865C1905.35 435.347 1889.34 407.98 1878.53 395.227C1866.84 381.191 1866.91 385.005 1878.64 400.054Z" fill="#DB9C62"/>
<path d="M1451.73 138.656C1461.96 144.929 1469.82 150.089 1469.35 150.224C1464.16 151.712 1430.47 132.221 1432.32 128.878C1432.66 128.27 1441.33 132.687 1451.73 138.656Z" fill="#DB9C62"/>
<path d="M1540.42 111.195C1549.56 117.266 1551.05 118.886 1545.75 117.336C1540.15 115.618 1524.42 103.508 1527.08 103C1527.62 103.101 1533.46 106.541 1540.42 111.195Z" fill="#DB9C62"/>
<path d="M1566.79 108.75C1576.01 115.057 1580.06 118.498 1578.88 118.836C1578.41 118.971 1573.78 116.206 1569.19 112.664C1560.14 106.053 1558.56 103.185 1566.79 108.75Z" fill="#DB9C62"/>
<path d="M1640.41 93.7875C1641.53 95.002 1648.07 96.4498 1654.72 97.3574C1661.13 98.3326 1666.12 99.7138 1665.62 100.625C1665.35 101.47 1660.29 101.641 1655.03 101.104C1649.46 100.398 1644.74 99.9623 1644.26 100.098C1642.38 100.639 1652.91 112.447 1660.37 117.979C1664.9 121.285 1668.24 124.928 1667.67 125.604C1666.49 127.731 1654.33 117.409 1644.47 106.174C1639.81 100.607 1635.29 95.5119 1634.48 94.466C1632.32 92.2731 1637.71 91.4936 1640.41 93.7875Z" fill="#DB9C62"/>
<path d="M1599.32 120.647C1602.43 122.569 1603.74 124.493 1602.33 124.899C1600.91 125.304 1597.94 123.855 1595.78 121.662C1593.62 119.469 1592.3 117.546 1592.77 117.41C1593.25 117.275 1596.22 118.725 1599.32 120.647Z" fill="#DB9C62"/>
<path d="M1641.66 128.454C1656.75 137.425 1669.75 148.017 1671.1 152.742C1671.44 153.923 1667.22 150.786 1661.75 145.962C1656.58 141.307 1647.07 134.831 1640.82 131.763C1630.87 126.435 1621.45 119.419 1623.81 118.743C1624.28 118.607 1632.41 122.923 1641.66 128.454Z" fill="#DB9C62"/>
<path d="M1490.29 178.736C1498.32 178.225 1505.77 178.39 1506.92 178.828C1508.14 179.502 1506.32 180.28 1502.81 180.518C1499.37 180.992 1492.35 181.469 1487.43 182.113C1482.27 182.825 1477.31 182.457 1476.26 181.478C1474.91 180.331 1474.4 179.454 1474.94 179.555C1475.48 179.656 1482.26 179.247 1490.29 178.736Z" fill="#DB9C62"/>
<path d="M1782.53 102.145C1786.04 105.485 1790.91 113.55 1793.51 119.962L1797.84 131.504L1791.15 120.638C1787.37 114.564 1782.4 107.04 1779.67 103.733C1773.42 95.2978 1775 94.5881 1782.53 102.145Z" fill="#DB9C62"/>
<path d="M1584.22 201.67C1587.7 202.208 1588.37 202.782 1586.01 203.458C1584.13 203.999 1580.55 204.001 1578.32 203.361C1573.26 201.744 1577.04 200.661 1584.22 201.67Z" fill="#DB9C62"/>
<path d="M1826.56 143.471C1831.66 147.89 1834.84 153.627 1836.83 161.491L1839.92 173.135L1834.98 163.045C1832.11 157.476 1827.24 149.412 1823.7 145.059C1815.86 135.544 1817.14 134.666 1826.56 143.471Z" fill="#DB9C62"/>
<path d="M1567.2 216.262C1583.63 217.434 1586.5 219.424 1571.12 219.231C1564.21 219.167 1557.32 218.327 1555.8 217.484C1552.16 215.461 1552.4 215.393 1567.2 216.262Z" fill="#DB9C62"/>
<path d="M1723.18 178.468C1727.9 180.693 1730.77 182.683 1729.35 183.089C1727.94 183.494 1723.65 181.91 1719.63 179.482C1710.39 173.952 1711.87 173.782 1723.18 178.468Z" fill="#DB9C62"/>
<path d="M1523.31 241.368C1520.61 242.652 1515.89 244.005 1512.69 244.412C1509.72 244.752 1511.95 243.603 1517.85 241.911C1523.75 240.22 1526.24 240.016 1523.31 241.368Z" fill="#DB9C62"/>
<path d="M1755.99 203.833C1775.22 212.126 1776.74 212.969 1773.67 213.849C1772.02 214.322 1763.69 211.086 1754.95 206.433C1735.78 196.587 1736.21 195.439 1755.99 203.833Z" fill="#DB9C62"/>
<path d="M1498.9 283.645C1495.4 294.617 1490.12 305.591 1489.51 303.465C1489.17 302.283 1491.52 296.24 1494.76 289.689C1498.06 283.375 1499.81 280.572 1498.9 283.645Z" fill="#DB9C62"/>
<path d="M1562.91 301.093C1563.38 302.747 1546.97 317.677 1545.52 317.07C1544.84 316.497 1548.58 312.612 1553.43 308.154C1558.52 303.628 1562.7 300.385 1562.91 301.093Z" fill="#DB9C62"/>
<path d="M1896.09 215.838C1898.05 220.9 1900.35 228.933 1901.4 233.489C1903.71 243.311 1902.68 263.801 1899.85 264.613C1898.67 264.951 1898.09 260.259 1898.35 254.048C1898.92 248.005 1897.69 234.808 1896.1 224.783C1893.49 211.215 1893.59 208.885 1896.09 215.838Z" fill="#DB9C62"/>
<path d="M1609.82 290.974C1603.04 296.75 1589.96 302.8 1591.81 299.457C1592.82 297.633 1598.01 294.356 1603.71 291.956C1610.52 288.982 1612.48 288.677 1609.82 290.974Z" fill="#DB9C62"/>
<path d="M1816.59 257.538C1823.24 262.024 1833.81 269.478 1840.39 273.727C1848.25 278.887 1850.42 281.08 1846.87 280.306C1839.86 278.993 1814.61 263.987 1808.73 257.745C1800.46 249.378 1804.74 249.173 1816.59 257.538Z" fill="#DB9C62"/>
<path d="M1662.92 297.998C1670.17 299.243 1674.93 300.692 1673.28 301.165C1668.86 302.687 1653.17 300.535 1650.4 298.005C1647.4 295.543 1646.62 295.51 1662.92 297.998Z" fill="#DB9C62"/>
<path d="M1806.28 304.465C1827.66 322.883 1839.44 334.59 1834.34 331.96C1820.94 325.318 1779.08 287.974 1780.86 284.394C1781.2 283.787 1792.78 292.995 1806.28 304.465Z" fill="#DB9C62"/>
<path d="M1729.22 318.113C1741.91 319.591 1752.09 321.272 1751.52 321.948C1750.41 324.311 1717.01 321.866 1710.53 318.866C1702.06 315.158 1701.52 315.057 1729.22 318.113Z" fill="#DB9C62"/>
<path d="M1836.94 294.658C1849.7 303.528 1873.3 329.743 1885.97 349.888C1900.7 372.766 1896.92 372.06 1880.81 348.811C1868.78 331.805 1848.05 309.369 1829.31 293.008C1821.75 286.228 1825.9 287.339 1836.94 294.658Z" fill="#DB9C62"/>
<path d="M1777.26 327.098C1783.54 327.601 1806.62 340.415 1812.87 347.061C1817.57 351.852 1814.49 350.942 1798.6 342.715C1787.56 337.185 1777.64 332.87 1776.7 333.14C1775.52 333.479 1773.63 332.231 1772.14 330.611C1769.64 327.237 1770.75 326.663 1777.26 327.098Z" fill="#DB9C62"/>
<path d="M1740.85 342.646C1756.57 342.232 1786.59 347.177 1792.33 351.157C1795.2 353.147 1793.18 353.216 1785.62 351.802C1779.62 350.456 1764.97 349.283 1752.86 348.918C1734.62 348.524 1728.21 349.337 1714.79 354.206C1699.14 360.223 1698.5 360.663 1691.63 374.135C1687.96 381.834 1684.56 386.899 1684.16 385.481C1683.07 381.701 1692.9 362.522 1698.73 357.017C1706.82 349.586 1725.91 343.094 1740.85 342.646Z" fill="#DB9C62"/>
<path d="M1926.83 330.253C1936.8 348.104 1940.52 357.52 1947.9 385.06C1953.12 403.252 1956.85 421.613 1956.82 425.967C1956.42 431.706 1954.36 425.395 1948.53 401.499C1942.23 375.95 1937.8 363.159 1926.81 339.974C1919.41 323.945 1913.46 310.311 1913.79 309.703C1914.13 309.095 1920.11 318.374 1926.83 330.253Z" fill="#DB9C62"/>
<path d="M1665.35 434.843C1663.5 443.554 1662.98 455.976 1663.93 462.862C1664.81 469.511 1664.85 475.891 1663.71 477.242C1660.78 480.383 1658.26 457.329 1660.2 442.712C1661.03 435.825 1663.32 427.756 1665.07 424.953C1667.66 420.631 1667.8 422.892 1665.35 434.843Z" fill="#DB9C62"/>
<path d="M1812 415.316C1852.41 422.652 1897.5 475.69 1897.71 516.535C1897.89 530.543 1896.07 527.743 1894.64 512.047C1891.43 474.107 1852.22 429.099 1813.55 418.961C1794.56 414.178 1793.64 411.883 1812 415.316Z" fill="#DB9C62"/>
<path d="M1734.81 473.994C1741.1 492.388 1764.71 523.97 1782.34 537.327C1795.43 547.379 1795.67 549.1 1782.64 541.074C1760.6 527.449 1736.05 494.348 1733.46 474.636L1732.37 467.278L1734.81 473.994Z" fill="#DB9C62"/>
<path d="M1695.46 525.664C1714.2 540.235 1738.16 552.543 1755.57 556.246C1765.05 558.131 1772.34 560.388 1772.07 561.232C1771.5 561.908 1762.12 561.272 1751.16 559.556C1735.1 557 1728.21 554.371 1714.91 545.4C1700.87 535.618 1682 518.785 1684.59 518.041C1685.07 517.906 1689.89 521.38 1695.46 525.664Z" fill="#DB9C62"/>
<path d="M1951.3 506.546C1949.4 531.122 1937.19 562.488 1924.96 574.174C1922.36 576.708 1925.29 569.988 1931.18 559.352C1937.98 547.432 1943.5 532.813 1945.82 520.389C1949.91 500.808 1952.44 494.461 1951.3 506.546Z" fill="#DB9C62"/>
</g>
<g opacity="0.25" clip-path="url(#clip1_718_22109)">
<path d="M522.852 673.334C519.141 673.804 509.426 673.832 501.162 673.254C486.523 672.638 486.523 672.638 498.26 674.467C505.14 675.416 512.83 677.108 515.662 677.92C518.427 678.968 523.285 678.06 526.087 676.306C531.994 672.63 532.061 672.394 522.852 673.334Z" fill="#DB9C62"/>
<path d="M447.777 660.767C442.581 662.857 438.732 665.589 439.102 666.973C440.178 670.349 419.18 686.574 408.179 691.091L398.393 694.934L403.154 689.907C405.687 687.309 414.902 681.002 423.239 675.977C435.525 668.76 437.686 666.567 433.47 666.126C430.502 665.787 423.045 667.74 416.701 670.268C410.289 673.033 404.384 674.92 403.676 674.717C402.732 674.446 396.219 676.67 389.2 679.772C374.621 686.076 373.646 683.24 386.812 672.952C395.386 666.205 395.386 666.205 381.313 673.421C373.483 677.569 359.644 686.641 350.394 693.961C334.831 706.374 332.708 703.976 347.261 689.74C350.772 686.4 352.732 683.127 351.788 682.856C347.303 681.571 320.102 694.484 314.294 700.489C311.255 703.964 308.082 706.123 307.813 705.278C307.308 704.367 309.639 700.689 313.05 696.809C318.858 690.803 318.082 690.837 302.658 699.199C283.893 709.417 276.16 717.683 268.619 735.974C264.595 745.558 261.285 749.978 255.885 752.777C245.996 757.869 245.317 762.02 255.61 757.3L263.609 753.457L256.115 758.212C252.031 760.876 248.049 762.292 247.004 761.481C244.713 758.779 188.514 793.55 166.031 811.394C143.783 829.305 113.159 858.622 89.4859 885.073C62.3344 915.64 30.3722 966.56 23.0272 991.298C19.8799 1001.39 19.373 1002.27 17.9274 997.507C15.1386 986.737 33.9586 922.848 53.8747 875.634L72.1 832.538L84.8542 829.035C104.897 823.274 115.935 815.956 124.921 802.425C129.144 795.71 134.751 788.624 137.316 786.803C140.05 785.285 141.3 783.598 140.356 783.328C137.287 782.448 149.577 771.653 162.234 764.032C169.356 759.681 179.246 752.801 184.04 748.55C189.071 744.367 201.223 735.834 210.91 729.662C220.833 723.558 229.205 717.521 229.476 716.576C229.814 715.394 237.679 710.234 246.927 704.704C256.108 699.409 263.433 694.35 263.096 693.742C262.759 693.134 257.733 693.739 252.031 694.917C238.94 697.813 231.251 696.121 242.925 692.819C252.913 690.057 268.338 679.905 277.693 669.547C281.643 665.566 285.999 661.957 287.45 661.35C295.177 658.452 282.291 658.849 265.557 661.979C253.681 664.2 240.453 669.357 228.606 675.933L210.549 686.353L217.113 667.015C224.657 645.145 225.905 645.247 200.955 667.242C192.785 674.36 185.659 682.288 184.915 684.887C183.934 687.418 182.858 684.042 182.089 676.919C181.489 670.1 182.104 662.606 183.557 660.211C188.558 651.673 182.955 655.181 173.566 666.551C160.327 682.442 146.035 704.679 143.598 713.185C142.447 717.201 140.826 719.293 139.68 717.942C138.703 716.895 139.012 711.359 140.57 705.925L143.177 695.935L132.438 708.452C120.584 722.184 108.929 738.786 105.109 747.661C102.843 752.892 102.371 752.757 100.155 742.662C98.3765 733.716 97.7031 732.5 95.3719 736.179C91.1486 742.894 82.4916 764.189 79.5803 774.347L77.1759 783.629L72.226 775.052C69.5324 770.19 67.6495 764.281 68.2588 762.155C68.8681 760.029 68.4326 757.092 67.2871 755.741C65.6695 754.255 63.3694 760.498 59.3382 777.239C54.1561 797.996 53.7463 802.992 56.363 817.035C59.4172 832.227 59.247 833.713 53.4683 844.072C31.5704 883.048 19.2958 912.51 11.4366 945.282C3.74761 976.57 2.38442 990.24 3.05432 1028.01C3.38009 1039.36 12.9267 1072 22.6196 1093.44C26.2538 1102.15 52.8694 1134.07 57.1184 1135.29C58.0626 1135.56 56.886 1131.64 54.7322 1126.68C35.414 1083.56 40.5923 1033.4 67.7109 1002.06C93.0728 973.279 112.751 960.767 148.247 950.998C172.54 944.666 190.283 945.149 216.382 953.906C245.146 963.172 245.82 964.388 239.111 993.144C232.844 1019.47 224.968 1035.36 203.857 1063.57C192.441 1078.45 183.425 1087.63 172.252 1095.42C163.644 1101.39 156.791 1106.58 157.128 1107.19C158.307 1109.32 207.127 1098.51 216.813 1094.13C227.477 1089 257.226 1059.18 263.782 1047C265.709 1042.95 268.748 1039.47 270.132 1039.1C274.653 1037.59 278.789 1017.81 277.354 1002.31C276.657 991.376 273.394 982.26 265.987 968.889C260.431 958.86 255.113 947.11 254.14 942.485C251.657 929.757 238.617 915.539 224.084 910.095C201.02 901.441 142.322 906.606 112.961 919.922C106.482 922.923 100.441 925.282 99.9694 925.147C97.6088 924.471 136.909 888.948 149.297 880.482C155.711 875.929 163.779 870.06 166.986 866.889C171.645 863.111 174.952 862.269 180.853 863.96C192.656 867.342 217.282 865.196 236.752 858.76C253.084 853.47 253.995 852.964 248.297 850.564C242.43 847.86 242.734 847.691 255.724 844.256C263.181 842.302 271.379 841.328 273.975 842.072C277.28 843.019 277.955 842.446 276.169 840.656C272.901 836.907 290.04 834.149 304.036 836.114C316.785 837.978 319.96 834.031 307.886 831.593C303.266 830.781 299.085 829.327 298.344 828.347C296.828 825.612 337.671 831.948 346.235 835.936L353.922 839.417L347.789 834.08C344.621 830.872 340.542 828.169 338.958 827.459C337.541 827.053 335.924 825.567 335.486 824.419C334.478 820.807 360.576 831.353 366.642 836.927C373.685 843.547 376.518 844.359 372.071 838.483C368.871 834.498 369.646 834.464 378.108 839.701C383.603 842.81 390.176 847.506 393.007 850.107C397.792 854.801 397.859 854.565 393.212 847.609C390.315 843.455 388.498 839.1 388.769 838.155C389.107 836.973 390.456 837.615 391.702 839.506C392.948 841.398 399.96 845.452 407.243 848.562C420.224 854.072 420.46 854.139 419.285 848.434C417.507 839.488 418.35 839.218 432.647 844.593L446.54 849.597L441.963 838.826C439.608 832.783 434.724 825.759 431.489 822.786C427.95 819.983 425.49 816.977 425.693 816.268C425.897 815.559 433.05 813.774 441.619 812.395L456.902 809.872L398.662 794.716L409.698 789.187C416.482 786.017 418.136 784.702 414.054 785.577C410.139 786.756 401.74 786.65 394.792 785.938L382.516 784.209L388.794 780.128C395.005 776.283 395.005 776.283 389.809 776.584C386.942 776.785 375.304 777.285 363.97 777.616C352.636 777.947 340.322 779.02 336.948 780.098C327.197 782.928 327.369 779.654 337.257 774.563L345.627 770.314L329.197 773.275C320.02 774.992 311.754 776.202 310.81 775.931C309.866 775.661 303.961 777.548 297.853 780.144C287.459 784.323 282.334 782.599 292.255 778.284C294.618 777.171 296.947 775.282 297.286 774.101C298.234 770.793 273.296 780.264 260.875 787.954C248.386 795.879 245.925 794.663 254.604 784.878L260.615 778.164L249.409 785.179C243.198 789.024 233.612 795.736 227.974 800.256C219.231 806.698 217.476 807.474 216.468 803.861C215.897 801.397 216.812 797.313 218.028 794.849C222.759 787.257 216.142 792.519 200.44 808.983C188.992 821.297 184.972 827.303 182.332 836.517C178.202 850.929 175.23 854.168 153.83 868.232C136.953 878.99 131.652 884.118 140.898 880.376C145.555 878.387 145.723 878.691 141.639 881.356C139.31 883.245 136.543 883.986 135.802 883.006C133.679 880.609 73.041 935.326 61.4562 949.902C50.3782 963.6 50.4807 962.352 61.802 941.564C71.7033 923.949 98.3187 889.905 115.336 873.307C121.38 867.369 132.929 855.595 140.662 847.329C157.614 829.178 183.574 809.007 222.29 783.543C262.458 757.473 261.614 757.743 282.861 762.042C296.823 765.02 305.526 764.958 321.045 762.502C340.106 759.273 340.41 759.104 330.866 757.647C324.929 756.969 320.444 755.683 320.58 755.211C320.783 754.502 326.417 753.56 332.995 752.889C344.769 751.917 358.065 746.523 358.068 742.945C357.902 740.852 377.401 738.77 384.314 740.496C388.631 741.477 388.935 741.309 385.429 739.281C382.159 737.322 383.441 736.411 392.045 734.019C398.051 732.672 406.553 731.53 411.072 731.802C415.524 732.311 418.899 731.233 418.461 730.085C418.092 728.701 423.66 726.206 430.678 724.894C443.465 722.167 443.465 722.167 435.033 721.284C424.408 720.029 426.602 718.613 446.914 713.696L462.603 709.755L452.049 706.475L441.426 703.431L449.827 701.748C454.382 701.008 465.147 696.423 473.72 691.466L489.279 682.631L469.516 678.501C458.691 676.166 447.595 674.776 445.199 675.112C438.621 675.783 440.412 672.206 450.169 664.009C454.592 660.163 458.036 657.06 457.8 656.992C457.564 656.924 452.974 658.677 447.777 660.767ZM469.91 689.607C460.662 695.138 435.73 699.242 426.996 696.739C417.79 694.101 418.331 692.211 430.718 685.534C438.615 681.15 444.654 680.58 458.146 681.634C467.59 682.551 475.65 683.838 475.987 684.446C476.56 685.122 473.623 687.348 469.91 689.607ZM396.14 687.641C389.083 695.333 368.089 707.98 364.312 706.897C360.299 705.747 375.693 693.03 388.552 686.489C396.078 682.51 402.558 679.509 403.03 679.645C403.266 679.712 400.159 683.424 396.14 687.641ZM360.105 697.511C352.641 706.621 330.126 721.899 331.548 716.938C332.293 714.339 367.336 684.755 367.942 686.207C368.279 686.815 364.833 691.707 360.105 697.511ZM446.109 709.375C445.973 709.847 439.496 711.059 432.006 712.236C421.277 714.019 414.026 713.474 402.527 709.924L387.251 705.29L402.298 702.7C413.87 700.647 420.65 701.056 431.98 704.303C439.702 706.772 446.244 708.902 446.109 709.375ZM274.423 667.588C265.036 677.169 246.845 686.273 229.739 689.807C219.179 691.894 210.745 692.801 211.016 691.856C212.776 685.713 263.8 664.544 277.158 664.281C277.462 664.113 276.212 665.8 274.423 667.588ZM329.467 706.371C321.562 717.911 314.1 725.232 305.831 730.02C299.317 734.034 293.613 737.001 293.445 736.697C292.771 735.481 306.014 716.012 311.89 709.77C316.719 704.507 338.693 689.33 340.582 689.871C340.818 689.938 335.852 697.463 329.467 706.371ZM214.077 666.912C207.148 681.288 200.663 689.656 189.116 699.641C182.668 705.207 177.098 709.491 176.761 708.883C175.751 707.059 189.605 683.674 194.434 678.411C200.849 672.069 215.772 659.216 216.716 659.487C217.188 659.622 215.936 663.098 214.077 666.912ZM418.535 724.482C410.573 725.523 389.698 720.819 375.468 715.208C363.06 710.374 388.964 712.684 408.084 718.163C426.496 723.44 426.968 723.575 418.535 724.482ZM384.296 725.407C388.781 726.692 392.051 728.652 391.712 729.833C390.561 733.85 368.469 731.609 355.488 726.099C342.979 720.725 342.743 720.657 349.761 719.345C357.386 717.695 368.854 718.681 373.168 721.451C374.989 722.229 379.811 724.122 384.296 725.407ZM298.356 716.885C290.853 730.586 277.142 746.342 272.487 746.542C264.492 746.807 280.882 717.246 293.574 708.612C298.705 704.969 303.498 702.508 304.003 703.42C304.576 704.095 301.803 710.203 298.356 716.885ZM171.48 694.331C165.729 710.834 162.484 716.807 154.144 725.41C142.899 737.016 138.921 734.853 145.479 720.882C151.97 707.147 174.301 672.898 176.426 673.506C177.606 673.845 175.202 683.126 171.48 694.331ZM235.086 705.912C225.94 710.194 197.433 714.296 196.154 711.628C194.639 708.893 211.173 702.894 225.106 701.518C245.449 699.167 247.742 700.079 235.086 705.912ZM360.436 736.465C360.806 737.85 358.747 738.794 355.611 738.15C344.853 735.579 322.832 729.524 323.035 728.815C324.322 724.326 359.058 731.469 360.436 736.465ZM344.167 746.887C338.599 749.381 327.231 748.936 296.607 745.273C289.423 744.492 289.49 744.256 294.991 741.998C301.943 739.132 317.088 738.871 334.626 741.852C341.978 742.936 348.623 743.817 349.331 744.02C350.107 743.987 347.677 745.336 344.167 746.887ZM206.462 725.575C199.17 731.411 185.336 735.116 166.647 736.152L156.19 736.99L165.202 731.391C170.366 728.525 178.161 725.39 182.547 724.346C189.7 722.561 210.482 719.569 212.674 719.942C213.214 719.841 210.377 722.607 206.462 725.575ZM310.591 759.762C302.426 761.513 271.667 756.533 272.48 753.698C273.563 749.918 291.137 750.097 304.356 753.885L318.519 757.944L310.591 759.762ZM368.922 784.404C365.243 785.651 357.381 789.022 351.509 791.685C342.127 795.899 319.793 798.958 312.948 796.996C304.686 794.629 336.708 783.609 356.376 781.831C373.884 780.457 377.796 781.067 368.922 784.404ZM131.6 736.334C128.924 746.561 112.234 772.712 108.93 771.765C105.625 770.818 107.969 754.617 112.532 744.931C114.662 740.173 120.507 731.366 125.303 725.326C133.342 715.103 134.253 714.597 134.18 720.2C134.176 723.779 132.921 730.833 131.6 736.334ZM392.693 793.261C385.202 796.228 369.783 799.223 361.553 799.421L355.11 799.62L363.007 795.236C371.884 790.11 386.391 787.621 393.709 789.718L398.43 791.071L392.693 793.261ZM431.941 809.622C428.599 811.476 401.076 809.469 391.398 806.696C383.204 804.092 382.799 803.72 387.489 802.508C390.256 801.766 396.295 801.196 400.578 801.401C410.158 801.845 434.607 808.341 431.941 809.622ZM180.197 745.915C167.875 755.934 127.011 771.067 128.703 765.16C129.786 761.38 165.257 743.679 175.378 742.233C181.012 741.291 185.87 740.382 186.342 740.518C186.882 740.417 184.113 742.947 180.197 745.915ZM315.321 785.149C307.859 792.47 293.346 800.327 281.064 803.966L272.156 806.526L279.585 798.429C286.508 791.209 300.109 783.858 314.415 780.288C322.412 778.233 322.412 778.233 315.321 785.149ZM397.184 822.159C402.913 827.124 409.214 834.554 411.267 838.978C415.24 846.507 415.172 846.744 410.451 845.391C402.189 843.023 391.742 833.127 385.985 822.018C379.151 809.321 382.49 809.256 397.184 822.159ZM432.997 832.678C437.408 839.566 437.509 840.107 433.26 838.889C424.458 836.622 411.278 828.243 408.584 823.381C406.295 818.89 407.071 818.857 416.985 821.698C425.483 824.133 429.326 826.768 432.997 832.678ZM277.164 790.832C269.43 800.887 241.919 819.336 239.899 815.689C237.475 811.671 273.732 783.201 279.161 784.757C280.341 785.096 279.293 787.863 277.164 790.832ZM375.904 817.083C381.024 824.175 384.957 838.085 381.888 837.205C377.639 835.988 360.62 821.395 353.478 812.446L346.2 803.969L359.183 807.69C367.917 810.193 373.412 813.301 375.904 817.083ZM230.766 774.468C230.631 774.94 228.201 776.289 225.602 777.334C220.945 779.323 220.777 779.019 224.929 776.119C229.081 773.218 231.308 772.578 230.766 774.468ZM350.032 817.339C355.794 823.081 356.03 823.148 350.094 822.47C341.494 821.283 315.369 804.593 321.407 804.022C327.513 803.216 342.82 810.415 350.032 817.339ZM95.8662 780.804C91.8368 795.756 87.716 801.222 85.1249 795.111C82.8027 789.843 83.2583 773.101 85.6243 768.41C86.7735 766.183 89.714 760.378 92.1477 755.451L96.2722 746.407L98.0491 757.143C98.6841 762.949 97.8973 773.717 95.8662 780.804ZM321.596 817.626C335.957 826.343 325.803 827.013 295.317 819.299L267.259 812.025L283.048 810.414C300.759 808.331 309.224 809.99 321.596 817.626ZM236.097 806.674C233.057 810.149 228.329 815.953 225.458 819.732C220.391 826.716 208.645 833.832 209.931 829.343C211.827 822.728 225.641 805.723 233.202 800.731C242.653 794.492 244.505 797.835 236.097 806.674ZM138.001 777.284C126.354 786.729 101.753 796.808 103.175 791.847C104.393 787.594 120.123 777.274 129.638 774.376C144.519 769.693 146.576 770.538 138.001 777.284ZM185.975 803.304C167.645 816.458 149.886 832.077 127.229 854.984C119.699 862.541 108.286 873.843 102.006 879.713C86.3056 894.388 68.0308 919.829 53.6664 947.67C39.5051 974.801 30.6414 1000.38 34.4841 1003.02C36.2371 1004.03 35.4887 1010.21 32.916 1019.19C28.2444 1035.49 24.2005 1064.75 26.2207 1068.4C26.8941 1069.61 31.2601 1055.27 36.0689 1036.71C45.822 999.109 54.0709 981.021 73.3247 954.837C86.701 936.684 102.227 927.072 129.052 919.932C154.492 913.161 171.9 911.247 199.154 912.41C218.852 913.198 222.765 913.808 230.754 918.91C238.912 924.315 253.294 944.543 249.953 946.398C249.346 946.735 243.951 944.167 238.119 940.45C222.849 930.45 189.126 921.552 171.214 922.555C148.882 923.825 120.404 932.281 100.288 943.646C79.1931 955.752 77.2316 960.814 98.2238 949.957C139.129 928.444 185.245 923.508 218.929 936.996C241.386 945.988 254.025 956.257 262.643 972.532C269.41 985.465 269.679 986.309 264.019 979.318C250.444 961.622 240.264 954.359 219.358 947.089C182.907 934.342 148.933 939.69 104.449 964.779C72.4868 982.719 51.3811 1005.56 42.7534 1031.21C34.8704 1054.26 33.0626 1073.94 37.0225 1093.99C39.6393 1108.04 39.4691 1109.52 36.0656 1106.24C29.6628 1100.06 24.788 1084.09 22.1803 1061.11C19.805 1041.76 19.9184 1029.78 22.5753 1004.46C24.0757 988.531 48.949 942.738 75.8369 905.96C90.9699 885.242 105.354 870.702 150.259 829.883C168.289 813.319 199.481 790.045 202.077 790.789C202.786 790.992 195.561 796.592 185.975 803.304ZM205.353 820.361C199.602 836.865 192.507 847.359 186.13 849.11C180.597 850.593 192.194 823.493 201.616 812.899C206.209 807.568 210.464 803.419 210.936 803.554C211.172 803.622 208.702 811.35 205.353 820.361ZM289.472 828.106C288.457 831.65 264.204 831.602 252.401 828.22L240.666 824.601L248.831 822.85C262.765 819.685 290.826 823.381 289.472 828.106ZM75.7815 794.734C77.0534 804.558 73.1924 819.813 68.7019 823.895C66.3048 826.02 64.9232 824.602 62.9067 817.377C60.5205 808.768 60.8626 804.008 64.9011 780.111L66.1234 772.281L70.5352 779.169C72.9598 783.188 75.3478 790.008 75.7815 794.734ZM253.978 836.086C259.001 839.059 258.326 839.633 244.123 841.954C235.553 843.333 223.443 843.697 217.103 842.647L205.366 840.818L211.441 837.445C219.17 832.758 237.76 829.393 243.898 831.152C246.426 832.132 250.944 834.194 253.978 836.086ZM113.751 806.638C105.85 814.6 81.6172 827.852 77.6042 826.702C70.9947 824.808 113.391 796.308 120.068 797.966C121.248 798.304 118.31 802.32 113.751 806.638ZM239.826 854.272C223.932 860.71 179.47 864.331 180.892 859.369C181.501 857.243 200.127 851.076 210.18 849.867C217.13 848.791 234.197 849.847 243.202 851.405C244.619 851.811 242.964 853.126 239.826 854.272ZM55.5819 855.416C52.4711 862.705 45.675 878.398 40.266 890.142C29.6839 913.697 14.2163 964.997 13.0196 980.761C12.7104 986.297 12.7306 999.597 13.2594 1010.23C14.9413 1048.04 14.934 1055.19 12.4087 1050.64C10.0189 1045.6 8.14124 1001.35 9.84661 982.919C11.8246 961.756 28.037 907.857 40.6466 880.792C46.7656 867.461 53.4592 853.018 55.15 848.9C60.8976 835.975 61.2288 841.95 55.5819 855.416ZM125.163 896.064C119.558 901.36 112.67 907.567 109.362 910.199C103.792 914.482 103.792 914.482 109.871 907.532C116.929 899.84 132.426 885.874 134.078 886.347C134.55 886.483 130.464 890.936 125.163 896.064ZM255.377 986.301C255.397 999.6 248.896 1024.07 242.575 1036.32C238.925 1043.71 229.298 1056.8 221.261 1065.24C213.157 1073.91 207.482 1081.23 208.663 1081.57C211.495 1082.38 237.628 1058.93 244.215 1049.32C247.357 1044.59 252.903 1030.59 256.728 1018.13C263.769 993.563 266.031 991.91 264.391 1011.89C262.481 1032.82 251.46 1057.02 238.393 1069.63C224.346 1082.99 214.795 1088.69 212.268 1085.92C211.054 1084.81 210.683 1085.21 211.221 1086.9C211.96 1089.67 203.118 1093.78 190.635 1096.34C184.933 1097.52 184.933 1097.52 193.544 1087.97C221.539 1057.13 240.667 1022.48 245.487 993.181C248.676 974.921 249.015 973.74 252.114 977.185C254.069 979.279 255.481 983.263 255.377 986.301ZM69.0447 951.054C63.8094 957.735 56.5119 968.937 52.8284 975.551C49.381 982.233 44.7167 991.378 42.25 995.529L37.992 1003.26L39.8547 995.865C42.3268 986.347 58.3436 958.98 69.1508 946.227C80.8363 932.191 80.7649 936.005 69.0447 951.054Z" fill="#DB9C62"/>
<path d="M495.951 689.656C485.724 695.929 477.859 701.089 478.331 701.224C483.524 702.712 517.208 683.221 515.357 679.878C515.02 679.27 506.346 683.687 495.951 689.656Z" fill="#DB9C62"/>
<path d="M407.264 662.195C398.117 668.266 396.631 669.886 401.928 668.336C407.529 666.618 423.261 654.508 420.596 654C420.057 654.101 414.218 657.541 407.264 662.195Z" fill="#DB9C62"/>
<path d="M380.888 659.75C371.673 666.057 367.622 669.498 368.802 669.836C369.274 669.971 373.898 667.206 378.489 663.664C387.536 657.053 389.125 654.185 380.888 659.75Z" fill="#DB9C62"/>
<path d="M307.267 644.787C306.153 646.002 299.607 647.45 292.961 648.357C286.551 649.333 281.557 650.714 282.062 651.625C282.331 652.47 287.391 652.641 292.654 652.104C298.22 651.398 302.943 650.962 303.415 651.098C305.304 651.639 294.767 663.447 287.307 668.979C282.783 672.285 279.44 675.928 280.013 676.604C281.191 678.731 293.345 668.409 303.207 657.174C307.867 651.607 312.393 646.512 313.203 645.466C315.364 643.273 309.968 642.494 307.267 644.787Z" fill="#DB9C62"/>
<path d="M348.359 671.647C345.253 673.569 343.936 675.493 345.352 675.899C346.769 676.304 349.738 674.855 351.9 672.662C354.061 670.469 355.378 668.546 354.906 668.41C354.434 668.275 351.464 669.725 348.359 671.647Z" fill="#DB9C62"/>
<path d="M306.017 679.454C290.93 688.425 277.933 699.017 276.578 703.742C276.24 704.923 280.46 701.786 285.929 696.962C291.095 692.307 300.614 685.831 306.857 682.763C316.814 677.435 326.232 670.419 323.871 669.743C323.399 669.607 315.266 673.923 306.017 679.454Z" fill="#DB9C62"/>
<path d="M457.388 729.736C449.361 729.225 441.906 729.39 440.758 729.828C439.543 730.502 441.364 731.28 444.872 731.518C448.312 731.992 455.328 732.469 460.252 733.113C465.412 733.825 470.371 733.457 471.418 732.478C472.768 731.331 473.275 730.454 472.735 730.555C472.196 730.656 465.416 730.247 457.388 729.736Z" fill="#DB9C62"/>
<path d="M165.146 653.145C161.635 656.485 156.769 664.55 154.165 670.962L149.836 682.504L156.526 671.638C160.31 665.564 165.276 658.04 168.012 654.733C174.261 646.298 172.676 645.588 165.146 653.145Z" fill="#DB9C62"/>
<path d="M363.456 752.67C359.981 753.208 359.305 753.782 361.666 754.458C363.554 754.999 367.13 755.001 369.357 754.361C374.418 752.744 370.641 751.661 363.456 752.67Z" fill="#DB9C62"/>
<path d="M121.118 694.471C116.02 698.89 112.843 704.627 110.845 712.491L107.764 724.135L112.699 714.045C115.572 708.476 120.437 700.412 123.984 696.059C131.819 686.544 130.538 685.666 121.118 694.471Z" fill="#DB9C62"/>
<path d="M380.475 767.262C364.047 768.434 361.177 770.424 376.559 770.231C383.474 770.167 390.357 769.327 391.875 768.484C395.52 766.461 395.284 766.393 380.475 767.262Z" fill="#DB9C62"/>
<path d="M224.504 729.468C219.779 731.693 216.91 733.683 218.326 734.089C219.743 734.494 224.028 732.91 228.045 730.482C237.293 724.952 235.809 724.782 224.504 729.468Z" fill="#DB9C62"/>
<path d="M424.369 792.368C427.066 793.652 431.787 795.005 434.991 795.412C437.959 795.752 435.734 794.603 429.833 792.911C423.931 791.22 421.435 791.016 424.369 792.368Z" fill="#DB9C62"/>
<path d="M191.691 754.833C172.455 763.126 170.937 763.969 174.005 764.849C175.658 765.322 183.993 762.086 192.734 757.433C211.904 747.587 211.466 746.439 191.691 754.833Z" fill="#DB9C62"/>
<path d="M448.781 834.645C452.278 845.617 457.563 856.591 458.172 854.465C458.511 853.283 456.155 847.24 452.924 840.689C449.625 834.375 447.873 831.572 448.781 834.645Z" fill="#DB9C62"/>
<path d="M384.774 852.093C384.3 853.747 400.712 868.677 402.163 868.07C402.839 867.497 399.098 863.612 394.245 859.154C389.157 854.628 384.977 851.385 384.774 852.093Z" fill="#DB9C62"/>
<path d="M51.5905 766.838C49.6289 771.9 47.327 779.933 46.2766 784.489C43.9729 794.311 44.9977 814.801 47.8303 815.613C49.0106 815.951 49.5888 811.259 49.3253 805.048C48.758 799.005 49.9858 785.808 51.5814 775.783C54.1926 762.215 54.0937 759.885 51.5905 766.838Z" fill="#DB9C62"/>
<path d="M337.863 841.974C344.638 847.75 357.719 853.8 355.868 850.457C354.857 848.633 349.666 845.356 343.968 842.956C337.157 839.982 335.201 839.677 337.863 841.974Z" fill="#DB9C62"/>
<path d="M131.088 808.538C124.438 813.024 113.872 820.478 107.29 824.727C99.4255 829.887 97.2644 832.08 100.807 831.306C107.825 829.993 133.071 814.987 138.947 808.745C147.22 800.378 142.936 800.173 131.088 808.538Z" fill="#DB9C62"/>
<path d="M284.762 848.998C277.509 850.243 272.751 851.692 274.403 852.165C278.821 853.687 294.508 851.535 297.277 849.005C300.282 846.543 301.057 846.51 284.762 848.998Z" fill="#DB9C62"/>
<path d="M141.396 855.465C120.025 873.883 108.24 885.59 113.336 882.96C126.735 876.318 168.6 838.974 166.816 835.394C166.479 834.787 154.9 843.995 141.396 855.465Z" fill="#DB9C62"/>
<path d="M218.459 869.113C205.774 870.591 195.585 872.272 196.158 872.948C197.269 875.311 230.666 872.866 237.146 869.866C245.616 866.158 246.156 866.057 218.459 869.113Z" fill="#DB9C62"/>
<path d="M110.743 845.658C97.9837 854.528 74.3784 880.743 61.7085 900.888C46.9781 923.766 50.7568 923.06 66.8705 899.811C78.8964 882.805 99.6306 860.369 118.368 844.008C125.931 837.228 121.781 838.339 110.743 845.658Z" fill="#DB9C62"/>
<path d="M170.416 878.098C164.141 878.601 141.055 891.415 134.808 898.061C130.115 902.852 133.185 901.942 149.081 893.715C160.117 888.185 170.039 883.87 170.983 884.14C172.163 884.479 174.053 883.231 175.539 881.611C178.039 878.237 176.926 877.663 170.416 878.098Z" fill="#DB9C62"/>
<path d="M206.83 893.646C191.111 893.232 161.085 898.177 155.347 902.157C152.477 904.147 154.501 904.216 162.059 902.802C168.064 901.456 182.705 900.283 194.815 899.918C213.064 899.524 219.473 900.337 232.893 905.206C248.538 911.223 249.179 911.663 256.046 925.135C259.715 932.834 263.117 937.899 263.523 936.481C264.607 932.701 254.777 913.522 248.947 908.017C240.858 900.586 221.773 894.094 206.83 893.646Z" fill="#DB9C62"/>
<path d="M20.8455 881.253C10.8764 899.104 7.15636 908.52 -0.225222 936.06C-5.43845 954.252 -9.16765 972.613 -9.13834 976.967C-8.73941 982.706 -6.67535 976.395 -0.849135 952.499C5.451 926.95 9.88289 914.159 20.8693 890.974C28.2729 874.945 34.2236 861.311 33.8869 860.703C33.5502 860.095 27.5702 869.374 20.8455 881.253Z" fill="#DB9C62"/>
<path d="M282.329 985.843C284.176 994.554 284.703 1006.98 283.751 1013.86C282.867 1020.51 282.827 1026.89 283.973 1028.24C286.904 1031.38 289.424 1008.33 287.482 993.712C286.646 986.825 284.36 978.756 282.609 975.953C280.016 971.631 279.879 973.892 282.329 985.843Z" fill="#DB9C62"/>
<path d="M135.683 966.316C95.265 973.652 50.179 1026.69 49.9688 1067.53C49.7859 1081.54 51.6102 1078.74 53.0429 1063.05C56.2524 1025.11 95.4608 980.099 134.128 969.961C153.124 965.178 154.037 962.883 135.683 966.316Z" fill="#DB9C62"/>
<path d="M212.869 1024.99C206.576 1043.39 182.966 1074.97 165.344 1088.33C152.246 1098.38 152.008 1100.1 165.037 1092.07C187.077 1078.45 211.634 1045.35 214.218 1025.64L215.305 1018.28L212.869 1024.99Z" fill="#DB9C62"/>
<path d="M252.215 1076.66C233.479 1091.24 209.517 1103.54 192.108 1107.25C182.627 1109.13 175.339 1111.39 175.608 1112.23C176.181 1112.91 185.559 1112.27 196.523 1110.56C212.582 1108 219.466 1105.37 232.766 1096.4C246.808 1086.62 265.681 1069.79 263.085 1069.04C262.613 1068.91 257.786 1072.38 252.215 1076.66Z" fill="#DB9C62"/>
<path d="M-3.62092 1057.55C-1.72322 1082.12 10.4895 1113.49 22.7222 1125.17C25.317 1127.71 22.3892 1120.99 16.4969 1110.35C9.69524 1098.43 4.17812 1083.81 1.86327 1071.39C-2.23207 1051.81 -4.75549 1045.46 -3.62092 1057.55Z" fill="#DB9C62"/>
</g>
<defs>
<clipPath id="clip0_718_22109">
<rect width="442" height="580" fill="white" transform="matrix(-0.961305 0.275486 0.275486 0.961305 1841.9 0)"/>
</clipPath>
<clipPath id="clip1_718_22109">
<rect width="442" height="580" fill="white" transform="translate(105.782 551) rotate(15.991)"/>
</clipPath>
</defs>
</svg>
